<?xml version="1.0" encoding="UTF-8" standalone="no"?>
<!-- Created with Inkscape (http://www.inkscape.org/) -->

<svg
   version="1.1"
   id="svg193"
   width="94"
   height="97"
   viewBox="0 0 94 97"
   sodipodi:docname="30.svg"
   inkscape:version="1.1.1 (3bf5ae0d25, 2021-09-20)"
   xmlns:inkscape="http://www.inkscape.org/namespaces/inkscape"
   xmlns:sodipodi="http://sodipodi.sourceforge.net/DTD/sodipodi-0.dtd"
   xmlns="http://www.w3.org/2000/svg"
   xmlns:svg="http://www.w3.org/2000/svg">
  <defs
     id="defs197">
    <clipPath
       clipPathUnits="userSpaceOnUse"
       id="clipPath1059">
      <path
         id="path1061"
         style="fill:#ff0000;fill-opacity:1;fill-rule:nonzero;stroke:none"
         d="M 6.9414062,3.2441406 V 93.470703 H 85.980469 V 3.2441406 Z M 48.908203,30.623047 c 1.104775,-0.0454 2.270846,0.61069 3.095703,2.001953 0.518457,-0.379 1.098596,-0.572265 1.679688,-0.572266 1.337782,0 2.669861,1.008877 3.238281,3.017578 0.531592,0.219874 1.097903,0.557253 1.681641,1.007813 0.594546,-0.920625 1.472724,-1.425476 2.392578,-1.464844 1.678556,-0.07184 3.489633,1.390721 3.943359,4.636719 0.05044,0.36085 0.08422,0.72403 0.126953,1.085938 0.08577,0.689801 0.199131,1.375788 0.306641,2.0625 0.163205,1.003502 0.316866,2.007576 0.449219,3.015624 0.142127,1.102306 0.259157,2.208079 0.341796,3.316407 0.08793,1.155215 0.08998,2.314937 0.08398,3.472656 -0.0025,0.969287 -0.04563,1.9378 -0.08203,2.90625 -0.01852,0.809592 -0.09265,1.615133 -0.177735,2.419922 -0.05956,0.605033 -0.15956,1.205725 -0.25,1.806641 -0.07993,0.654237 -0.234412,1.293475 -0.429687,1.921874 -0.03259,0.09432 -0.06507,0.18693 -0.09766,0.28125 -2.269345,6.567254 -8.948998,4.273346 -6.707032,-2.210937 -0.071,-0.03444 -0.143418,-0.0628 -0.21289,-0.103516 -0.331336,5.286347 -6.036497,5.58325 -7,-0.421875 -0.483214,2.020275 -1.147856,3.47181 -2.773438,1.03125 l -0.396484,-0.595703 c -0.07191,-0.153607 -0.147533,-0.305841 -0.220703,-0.458984 -0.728969,2.195868 -3.798617,3.027543 -6.675782,0.158203 -1.707265,1.661913 -3.605368,1.716835 -4.759765,0.712891 -0.643357,2.827178 -4.464127,3.566637 -7.107422,-0.59961 -0.218591,-0.344533 -0.434963,-0.690799 -0.601563,-1.064453 -0.323854,-0.733901 -0.589518,-1.488854 -0.763671,-2.273437 -0.186773,-0.787238 -0.357354,-1.58003 -0.507813,-2.375 -0.166654,-0.99831 -0.292518,-2.007166 -0.273437,-3.021485 0.0128,-1.019282 0.06581,-2.038235 0.167968,-3.052734 0.12871,-1.157501 0.30367,-2.310777 0.560547,-3.447266 0.259077,-1.116548 0.553686,-2.226458 0.962891,-3.298828 0.365679,-0.955531 0.768638,-1.897953 1.240234,-2.80664 0.34646,-0.671754 0.703681,-1.338901 1.123047,-1.96875 0.175035,-0.272276 0.421692,-0.653041 0.548828,-0.830079 1.401994,-1.952285 3.015761,-2.800732 4.369141,-2.839843 1.962151,-0.0567 3.375247,1.589584 2.804687,4.041015 0.05942,-0.01176 0.117348,-0.02838 0.177735,-0.03711 0.432507,-0.06256 0.843684,-0.09485 1.230468,-0.09961 3.420803,-0.0421 5.027175,2.047408 4.447266,3.990235 0.639542,0.873659 1.066406,2.160885 1.066406,3.873047 v 0.677734 c 9.8e-4,0.397856 0.0014,0.795651 -0.0098,1.19336 -0.01725,0.504761 -0.06061,1.007464 -0.111329,1.509765 -0.04578,0.430274 -0.08115,0.861184 -0.130859,1.291016 -0.06364,0.55053 -0.182909,1.092731 -0.3125,1.630859 -0.118038,0.494199 -0.236875,0.986658 -0.378906,1.47461 -0.03373,0.110036 -0.06828,0.219873 -0.101563,0.330078 0.263371,0.393625 0.525309,0.788324 0.777344,1.189453 0.121064,0.174569 0.314116,0.549273 0.431641,0.658203 0.0086,0.0085 0.01679,0.01689 0.02539,0.02539 0.276188,0.273317 0.511028,0.548046 0.72461,0.820313 -0.166918,-0.890528 -0.305935,-1.786405 -0.396485,-2.689453 -0.136157,-1.344043 -0.213299,-2.694691 -0.255859,-4.044922 -0.03883,-1.34184 -0.04502,-2.683025 -0.04102,-4.025391 -0.0021,-1.24156 -0.0053,-2.483062 -0.01172,-3.724609 -0.0067,-0.954698 -0.01618,-1.91009 -0.07617,-2.863281 -0.0166,-0.29532 -0.0303,-0.592524 -0.07813,-0.884766 -0.600019,-3.665782 1.068998,-5.708132 2.943359,-5.785156 z" />
    </clipPath>
  </defs>
  <sodipodi:namedview
     id="namedview195"
     pagecolor="#ffffff"
     bordercolor="#666666"
     borderopacity="1.0"
     inkscape:pageshadow="2"
     inkscape:pageopacity="0.0"
     inkscape:pagecheckerboard="0"
     showgrid="false"
     inkscape:zoom="4.2474227"
     inkscape:cx="43.791262"
     inkscape:cy="34.962378"
     inkscape:window-width="1920"
     inkscape:window-height="1009"
     inkscape:window-x="1912"
     inkscape:window-y="-8"
     inkscape:window-maximized="1"
     inkscape:current-layer="g199" />
  <g
     inkscape:groupmode="layer"
     inkscape:label="Image"
     id="g199">
    <path
       style="fill:#d0ccb2;fill-opacity:1"
       d="M 27.766959,83.139753 10.092169,72.840602 8.516958,71.533293 6.941748,70.225985 V 48.362618 26.499251 l 3.75,-2.412161 3.75,-2.41216 15.85416,-9.215263 15.85416,-9.2152634 2.14584,1.1532861 2.14584,1.1532861 17.5,10.2161342 17.5,10.216134 0.26906,22.217013 0.26906,22.217013 -3.76906,2.424774 -3.76906,2.424774 -15.660709,9.102028 -15.660709,9.102028 -0.839291,-0.01599 -0.839291,-0.01599 z m 37.971516,-2.603695 18.203273,-10.434816 -0.0082,-21.565184 -0.0082,-21.565184 -3.741752,-2.060002 -3.741751,-2.060003 -15.20108,-8.808056 -15.20108,-8.8080567 -16.79892,9.7580397 -16.79892,9.758039 -1.75,1.515007 -1.75,1.515007 v 21.151099 21.151099 l 18.25,10.665739 18.25,10.665738 1.046727,-0.221825 1.046726,-0.221825 z m -37.048007,-1.793557 -16.74872,-9.728373 0.02768,-20.521627 0.02768,-20.521627 12.175221,-7 12.175222,-7 5.092057,-2.786328 5.092057,-2.7863276 16.955037,9.8644746 16.955037,9.864474 v 20.356898 20.356899 l -16.814566,9.814955 -16.814575,9.814955 h -0.686705 -0.686705 z m 33.940687,-1.44718 15.810593,-9.175553 0.416667,-0.324447 0.416666,-0.324447 -0.604336,-0.604336 -0.604336,-0.604337 -3.215969,1.604337 -3.215968,1.604336 H 71.28811 70.941748 v -2.567388 -2.567387 l 2.25,0.679782 2.25,0.679782 -1.25,-1.312394 -1.25,-1.312395 v -1.183369 -1.183368 l 2.103873,-0.550175 2.103874,-0.550176 -0.455625,2.383444 -0.455624,2.383443 1.351751,0.518716 1.351751,0.518715 v -16.93723 -16.93723 l -1.351751,0.518715 -1.351751,0.518716 0.455624,2.383443 0.455625,2.383444 -2.103874,-0.550176 -2.103873,-0.550175 v -1.183368 -1.183369 l 1.25,-1.312395 1.25,-1.312394 -2.25,0.679782 -2.25,0.679782 v -2.567387 -2.567388 h 0.940983 0.940983 l 0.544239,0.880598 0.54424,0.880598 2.514777,0.48073 2.514778,0.48073 -0.0301,-0.611328 -0.0301,-0.611328 -15.621314,-9 -15.621315,-9 -0.703404,-0.28494 -0.703404,-0.28494 -12.895181,7.409526 -12.89518,7.409526 -3.243677,1.875414 -3.243678,1.875414 -0.0063,0.718615 -0.0063,0.718615 1.75,-0.623849 1.75,-0.62385 1.326215,-1.030464 1.326216,-1.030463 0.907528,1.435698 0.907529,1.435698 -0.341373,1 -0.341373,1 -1.677454,-0.144736 -1.677455,-0.144736 1.121173,1.350931 1.121174,1.350931 -0.570506,0.923099 -0.570506,0.923098 -2.10646,0.550851 -2.106459,0.550852 0.609928,-2.430145 0.60988,-2.430145 H 14.9608 13.941748 v 16.559017 16.559017 l 1.040677,-0.643174 1.040678,-0.643174 -0.608065,-1.915843 -0.608065,-1.915843 h 2.00837 2.008371 l 0.645107,1.043805 0.645107,1.043805 -1.121174,1.350931 -1.121173,1.350931 1.677455,-0.144736 1.677454,-0.144736 0.341373,1 0.341373,1 -0.983744,1.5 -0.983744,1.5 -0.75,-1.087716 -0.75,-1.087715 -2.25,-0.568665 -2.25,-0.568665 v 0.693757 0.693756 l 15.75,9.135768 15.75,9.135767 0.689407,0.07686 0.689408,0.07685 z m -18.051033,6.675553 -0.575604,-1.5 h -1.531385 -1.531385 v -1.5 -1.5 l 0.75,-0.101453 0.75,-0.101453 3.678476,-0.337192 3.678475,-0.337191 1.184149,1.426811 1.184148,1.426812 -1.862624,0.686422 -1.862624,0.686422 -0.79969,1.325411 -0.79969,1.325411 h -0.843321 -0.843321 z m 2.361626,-3 v -0.5 h -0.5 -0.5 v 0.5 0.5 h 0.5 0.5 z M 38.935274,75.596499 36.4288,74.774098 33.375729,73.195294 30.322658,71.61649 26.176673,67.470505 22.030688,63.32452 l -2.04447,-5.464336 -2.04447,-5.464335 v -4.424975 -4.424975 l 2.043507,-5.461761 2.043507,-5.461761 4.050162,-4.173417 4.050163,-4.173416 4.65633,-2.061831 4.656331,-2.06183 7.054717,0.04369 7.054718,0.04369 5.083135,2.575819 5.083134,2.57582 3.557872,4.156572 3.557872,4.156573 1.554276,4.56155 1.554276,4.561555 v 5.143722 5.143722 l -1.575102,4.622669 -1.575101,4.622669 -3.79813,4.314903 -3.79813,4.314904 -4.734126,2.364337 -4.734126,2.364337 -6.142642,0.350242 -6.142643,0.350243 z m 18.409876,-3.617695 3.903402,-1.881401 3.473873,-3.473873 3.473873,-3.473873 1.999814,-4.52091 1.999813,-4.520909 0.04489,-6.068482 0.04488,-6.068482 -2.044699,-4.589391 -2.044699,-4.589392 -3.473873,-3.473873 -3.473873,-3.473873 -3.903402,-1.86486 -3.903402,-1.864861 -5.145288,-0.437022 -5.145287,-0.437021 -4.964004,1.648777 -4.964004,1.648778 -4.276777,3.660761 -4.276776,3.660762 -2.354163,5.055607 -2.354163,5.055608 0.01219,6 0.01219,6 2.034616,4.5 2.034615,4.5 3.193423,3.335319 3.193422,3.335319 2.993526,1.566293 2.993526,1.566293 2.506474,0.814179 2.506474,0.814178 6,-0.271125 6,-0.271125 3.903402,-1.881401 z M 32.810322,57.961026 30.178895,56.531254 29.557077,54.910822 28.935259,53.29039 l 0.562262,-0.909758 0.562261,-0.909758 h 1.940983 1.940983 v 1.566422 1.566423 l 2.75,-0.316423 2.75,-0.316422 v -1.486305 -1.486305 l -2,-0.371303 -2,-0.371304 -1.262331,-1.02507 -1.262331,-1.02507 1.134776,-1.367322 1.134775,-1.367321 h 1.877556 1.877555 v -2 -2 h -2.031385 -2.031385 l -0.575604,1.5 -0.575604,1.5 h -1.833994 -1.833994 l -0.545392,-0.882463 -0.545392,-0.882462 2.058955,-2.617538 2.058955,-2.617537 h 3.772433 3.772432 l 1.654987,1.828741 1.654988,1.82874 v 1.737001 1.737001 l -1.002704,1.87357 -1.002705,1.87357 1.002705,0.619706 1.002704,0.619705 -0.01531,2.690983 -0.01531,2.690983 -0.734687,1.100296 -0.734687,1.100296 -2.184259,1.149704 -2.184264,1.149704 -1.315742,-0.04004 -1.315741,-0.04004 z m 19.867835,0.817905 -1.76359,-0.45994 -1.48641,-2.874399 -1.486409,-2.874398 v -4.914801 -4.914802 l 2.07258,-2.634858 2.07258,-2.634859 h 3.870716 3.870716 l 1.556704,2.222506 1.556704,2.222506 v 6.322949 6.322948 l -2.454545,2.454546 -2.454546,2.454545 -1.795454,-0.116001 -1.795455,-0.116002 z m 5.263591,-10.877608 v -6.569551 l -2.25,0.319551 -2.25,0.319551 -0.309812,4.87294 -0.309812,4.872941 0.528427,1.377059 0.528427,1.37706 h 2.031385 2.031385 z M 41.943613,17.072739 40.941748,16.070874 v -0.8 -0.8 h 2 2 v -1.5 -1.5 h 1.031385 1.031385 l 0.53779,1.401458 0.53779,1.401458 2.095276,0.547928 2.095276,0.547927 -1.203825,1.450521 -1.203826,1.450521 -3.458761,-0.09804 -3.458761,-0.09804 -1.001864,-1.001864 z m 4.998135,-1.101865 v -0.5 h -0.5 -0.5 v 0.5 0.5 h 0.5 0.5 z"
       id="path833"
       clip-path="url(#clipPath1059)" />
  </g>
</svg>
